<svg xmlns="http://www.w3.org/2000/svg" viewBox="0 0 1600 900"><defs><linearGradient id="b" x2="1" y2="1"><stop stop-color="#120b20"/><stop offset=".5" stop-color="#351449"/><stop offset="1" stop-color="#081b2a"/></linearGradient><linearGradient id="a"><stop stop-color="#ff8bd8"/><stop offset=".5" stop-color="#9b8cff"/><stop offset="1" stop-color="#69efff"/></linearGradient></defs><rect width="1600" height="900" rx="40" fill="url(#b)"/><circle cx="1280" cy="160" r="220" fill="#df76ff" opacity=".12"><animate attributeName="r" values="190;250;190" dur="5s" repeatCount="indefinite"/></circle><g font-family="Arial,sans-serif"><text x="90" y="115" fill="#ffb3e9" font-size="19" font-weight="700">AI FASHION • IN DEVELOPMENT</text><text x="90" y="190" fill="white" font-size="72" font-weight="800">Kombin AI</text><text x="90" y="242" fill="#c4b4d0" font-size="24">Personalized outfit intelligence powered by AI</text></g><g transform="translate(120 335)"><rect width="490" height="350" rx="35" fill="#150d22" stroke="#754b89"/><path d="M245 50c-48 0-78 38-78 82v24l-92 54 46 82 58-31v70h132v-70l58 31 46-82-92-54v-24c0-44-30-82-78-82z" fill="url(#a)"><animate attributeName="opacity" values=".75;1;.75" dur="3s" repeatCount="indefinite"/></path></g><g transform="translate(700 345)" font-family="Arial,sans-serif"><rect width="760" height="92" rx="24" fill="#21122e" stroke="#69417c"/><text x="28" y="37" fill="#ff9ee1" font-size="15" font-weight="700">AI STYLE</text><text x="28" y="70" fill="white" font-size="27" font-weight="700">Personalized combination suggestions</text><rect y="112" width="760" height="92" rx="24" fill="#21122e" stroke="#69417c"/><text x="28" y="149" fill="#ff9ee1" font-size="15" font-weight="700">SMART WARDROBE</text><text x="28" y="182" fill="white" font-size="27" font-weight="700">Style-aware outfit planning experience</text></g></svg>