<svg xmlns="http://www.w3.org/2000/svg" viewBox="0 0 1600 900">
<defs>
<linearGradient id="bg" x2="1" y2="1"><stop stop-color="#04101c"/><stop offset=".55" stop-color="#08253a"/><stop offset="1" stop-color="#180d2d"/></linearGradient>
<linearGradient id="ac"><stop stop-color="#6ef4ff"/><stop offset=".5" stop-color="#6f9dff"/><stop offset="1" stop-color="#b879ff"/></linearGradient>
</defs>
<rect width="1600" height="900" rx="42" fill="url(#bg)"/>
<circle cx="350" cy="340" r="230" fill="none" stroke="#6ef4ff" stroke-width="3" opacity=".35"/>
<circle cx="350" cy="340" r="155" fill="none" stroke="#7e9dff" stroke-width="3" opacity=".4"/>
<circle cx="350" cy="340" r="80" fill="none" stroke="#b879ff" stroke-width="3" opacity=".5"/>
<path d="M350 340L500 220" stroke="url(#ac)" stroke-width="10" stroke-linecap="round"/>
<circle cx="480" cy="236" r="14" fill="#8af7ff"/>
<g font-family="Arial,sans-serif">
<text x="90" y="110" fill="#8bf4ff" font-size="18" font-weight="700">MBlueFisherAI</text>
<text x="90" y="170" fill="#fff" font-size="54" font-weight="800">AI-Powered Fishing Assistant</text>
<text x="90" y="215" fill="#9fb2c4" font-size="22">Weather • Spot intelligence • Species insights • Fishing data</text>
</g>
<g transform="translate(900 70)">
<rect width="420" height="760" rx="68" fill="#02050a" stroke="#3b5270" stroke-width="4"/>
<rect x="18" y="18" width="384" height="724" rx="54" fill="#071827"/>
<rect x="135" y="30" width="150" height="24" rx="12" fill="#02050a"/>
<text x="48" y="110" fill="#f2fbff" font-family="Arial" font-size="31" font-weight="700">MBlueFisherAI</text>
<circle cx="210" cy="300" r="110" fill="none" stroke="#6defff" stroke-width="2"/>
<circle cx="210" cy="300" r="72" fill="none" stroke="#7b8eff" stroke-width="2"/>
<path d="M210 300L282 226" stroke="url(#ac)" stroke-width="6" stroke-linecap="round"/>
<rect x="48" y="450" width="324" height="96" rx="22" fill="#0c2236" stroke="#2a4c66"/>
<text x="70" y="485" fill="#7df2ff" font-family="Arial" font-size="13" font-weight="700">TODAY'S CONDITIONS</text>
<text x="70" y="522" fill="#fff" font-family="Arial" font-size="26" font-weight="700">Foça • 86/100</text>
<rect x="48" y="580" width="324" height="76" rx="22" fill="url(#ac)"/>
<text x="112" y="626" fill="#07101b" font-family="Arial" font-size="20" font-weight="700">START ANALYSIS</text>
</g>
</svg>