<svg xmlns="http://www.w3.org/2000/svg" viewBox="0 0 1400 800">
<defs><linearGradient id="b" x1="0" y1="0" x2="1" y2="1"><stop stop-color="#041522"/><stop offset=".5" stop-color="#0a3441"/><stop offset="1" stop-color="#13213d"/></linearGradient><linearGradient id="w"><stop stop-color="#64f0ff"/><stop offset=".5" stop-color="#4da8ff"/><stop offset="1" stop-color="#9b7dff"/></linearGradient></defs>
<rect width="1400" height="800" rx="40" fill="url(#b)"/>
<path d="M0 620C180 540 320 680 510 610s340-95 540-15 240 65 350 10V800H0Z" fill="#071725" opacity=".85"/>
<g transform="translate(80 105)" font-family="Arial">
<text fill="#84f4ff" font-size="17" font-weight="700">IN DEVELOPMENT</text>
<text y="62" fill="#fff" font-size="54" font-weight="700">Fish of Fortune</text>
<text y="110" fill="#a0b8c7" font-size="20">Fishing • Business • Fleet • Progression</text>
<rect y="175" width="470" height="92" rx="24" fill="#0b2533" stroke="#275365"/><text x="26" y="212" fill="#83f4ff" font-size="14" font-weight="700">WORLD SYSTEM</text><text x="26" y="246" fill="#fff" font-size="25" font-weight="700">Ports, regions & discoveries</text>
<rect y="287" width="470" height="92" rx="24" fill="#0b2533" stroke="#275365"/><text x="26" y="324" fill="#83f4ff" font-size="14" font-weight="700">BUSINESS SYSTEM</text><text x="26" y="358" fill="#fff" font-size="25" font-weight="700">Fleet, crew & company growth</text>
<rect y="399" width="470" height="92" rx="24" fill="#0b2533" stroke="#275365"/><text x="26" y="436" fill="#83f4ff" font-size="14" font-weight="700">GAME LOOP</text><text x="26" y="470" fill="#fff" font-size="25" font-weight="700">Fishing, rewards & upgrades</text>
</g>
<g transform="translate(760 95)">
<circle cx="250" cy="300" r="240" fill="#072635" stroke="#286175" stroke-width="4"/>
<circle cx="250" cy="300" r="175" fill="#0b3140" stroke="#31768b" stroke-width="3"/>
<path d="M85 355C145 285 200 290 245 330C300 275 385 278 435 330C390 400 305 430 225 410C165 450 110 430 85 355Z" fill="url(#w)"/>
<path d="M420 330L520 270L505 365L550 430L430 396Z" fill="#55b7e9"/>
<circle cx="155" cy="345" r="12" fill="#05101a"/>
<path d="M140 380Q170 400 205 382" fill="none" stroke="#071018" stroke-width="7" stroke-linecap="round"/>
<circle cx="250" cy="300" r="260" fill="none" stroke="#6defff" stroke-width="2" opacity=".22"/>
<circle cx="250" cy="300" r="115" fill="none" stroke="#8e82ff" stroke-width="2" opacity=".22"/>
</g>
</svg>