<svg xmlns="http://www.w3.org/2000/svg" viewBox="0 0 1400 800">
<defs><linearGradient id="b" x1="0" y1="0" x2="1" y2="1"><stop stop-color="#10050c"/><stop offset=".48" stop-color="#2b0b16"/><stop offset="1" stop-color="#07111c"/></linearGradient><linearGradient id="r"><stop stop-color="#ff5f6d"/><stop offset="1" stop-color="#ffb36b"/></linearGradient></defs>
<rect width="1400" height="800" rx="40" fill="url(#b)"/>
<circle cx="1120" cy="160" r="260" fill="#ff5f6d" opacity=".08"/><circle cx="250" cy="650" r="260" fill="#66d9ff" opacity=".05"/>
<g transform="translate(90 110)" font-family="Arial">
<text fill="#ff8992" font-size="17" font-weight="700">PUBLISHED MOBILE GAME</text>
<text y="62" fill="#fff" font-size="52" font-weight="700">MBStress: Boss Rush</text>
<text y="108" fill="#b8a4ac" font-size="20">Fast reflexes • Boss battles • Progressive challenge</text>
<rect y="170" width="430" height="100" rx="24" fill="#25101a" stroke="#5f2836"/>
<text x="26" y="208" fill="#ff9ca4" font-size="14" font-weight="700">GAMEPLAY</text><text x="26" y="245" fill="#fff" font-size="26" font-weight="700">Precision & timing</text>
<rect y="290" width="430" height="100" rx="24" fill="#25101a" stroke="#5f2836"/>
<text x="26" y="328" fill="#ff9ca4" font-size="14" font-weight="700">PROGRESSION</text><text x="26" y="365" fill="#fff" font-size="26" font-weight="700">Levels • Store • Rewards</text>
<rect y="410" width="430" height="100" rx="24" fill="#25101a" stroke="#5f2836"/>
<text x="26" y="448" fill="#ff9ca4" font-size="14" font-weight="700">PLATFORM</text><text x="26" y="485" fill="#fff" font-size="26" font-weight="700">Available on Google Play</text>
</g>
<g transform="translate(710 80)">
<circle cx="260" cy="320" r="250" fill="#13080f" stroke="#52202b" stroke-width="4"/>
<circle cx="260" cy="320" r="180" fill="#1b0b13" stroke="#6d2735" stroke-width="4"/>
<circle cx="260" cy="320" r="100" fill="#220d16" stroke="#8a3041" stroke-width="4"/>
<path d="M260 90L310 250L480 260L335 350L370 520L260 420L150 520L185 350L40 260L210 250Z" fill="url(#r)" opacity=".92"/>
<circle cx="260" cy="320" r="42" fill="#09090d"/><circle cx="260" cy="320" r="16" fill="#fff"/>
</g>
</svg>