<svg xmlns="http://www.w3.org/2000/svg" viewBox="0 0 24 24" fill="none" stroke="currentColor" stroke-width="1.7" stroke-linecap="round" stroke-linejoin="round"><path d="M9.5 4.5A3 3 0 0 0 6 7.5c0 .3 0 .6.1.9A3.5 3.5 0 0 0 6.5 15a3 3 0 0 0 3 4.5c.9 0 1.8-.4 2.5-1V5.7a3 3 0 0 0-2.5-1.2ZM14.5 4.5A3 3 0 0 1 18 7.5c0 .3 0 .6-.1.9a3.5 3.5 0 0 1-.4 6.6 3 3 0 0 1-3 4.5c-.9 0-1.8-.4-2.5-1V5.7a3 3 0 0 1 2.5-1.2Z"/><path d="M8 9.5c1 .1 1.7.6 2 1.5M16 9.5c-1 .1-1.7.6-2 1.5M8 15c1-.1 1.7-.6 2-1.5M16 15c-1-.1-1.7-.6-2-1.5"/></svg>
