<svg xmlns="http://www.w3.org/2000/svg" viewBox="0 0 800 520"><defs><linearGradient id="a" x1="0" y1="0" x2="1" y2="1"><stop stop-color="#0a1728"/><stop offset="1" stop-color="#101026"/></linearGradient><linearGradient id="g" x1="0" y1="0" x2="1" y2="1"><stop stop-color="#72f0ff"/><stop offset="1" stop-color="#8c7fff"/></linearGradient></defs><rect width="800" height="520" rx="42" fill="url(#a)"/><circle cx="615" cy="125" r="130" fill="#6c7eff" opacity=".12"/><rect x="92" y="92" width="396" height="292" rx="24" fill="#0b1322" stroke="#2b3e5d"/><rect x="112" y="112" width="356" height="34" rx="10" fill="#101e32"/><circle cx="133" cy="129" r="5" fill="#ff7d8e"/><circle cx="151" cy="129" r="5" fill="#ffd474"/><circle cx="169" cy="129" r="5" fill="#79efbc"/><rect x="112" y="164" width="94" height="200" rx="15" fill="#08101c"/><rect x="225" y="164" width="243" height="200" rx="15" fill="#07101c"/><path d="M248 197h105M248 224h72M248 251h148M248 278h112M248 305h165" stroke-linecap="round" stroke-width="8" stroke="#5fdff1" opacity=".5"/><rect x="540" y="70" width="174" height="360" rx="31" fill="#050912" stroke="#354b68" stroke-width="3"/><rect x="554" y="86" width="146" height="328" rx="22" fill="#0c2134"/><circle cx="627" cy="174" r="48" fill="none" stroke="#74efff" stroke-width="2"/><path d="M603 176l17 17 36-45" fill="none" stroke="url(#g)" stroke-width="9" stroke-linecap="round" stroke-linejoin="round"/><rect x="579" y="253" width="96" height="11" rx="5" fill="#effcff"/><rect x="579" y="278" width="74" height="8" rx="4" fill="#7790a8"/><rect x="579" y="330" width="96" height="38" rx="19" fill="url(#g)"/></svg>
