<svg xmlns="http://www.w3.org/2000/svg" viewBox="0 0 1200 720"><defs><linearGradient id="b" x1="0" y1="0" x2="1" y2="1"><stop stop-color="#061524"/><stop offset=".52" stop-color="#0a1830"/><stop offset="1" stop-color="#111126"/></linearGradient><linearGradient id="g" x1="0" y1="0" x2="1" y2="1"><stop stop-color="#63eeff"/><stop offset=".5" stop-color="#5f8cff"/><stop offset="1" stop-color="#b878ff"/></linearGradient></defs><rect width="1200" height="720" rx="54" fill="url(#b)"/><path d="M0 525C150 460 278 575 430 510s280-115 430-24 258 28 340-15v249H0Z" fill="#0c3147"/><path d="M0 558c155-66 297 49 462-17s278-71 404-11 239 32 334-7" fill="none" stroke="#52e7ff" stroke-width="3" opacity=".36"/><circle cx="300" cy="220" r="152" fill="none" stroke="#66ecff" stroke-width="2" opacity=".22"/><circle cx="300" cy="220" r="104" fill="none" stroke="#7789ff" stroke-width="2" opacity=".28"/><path d="M148 220h304M300 68v304" stroke="#62eaff" opacity=".13"/><circle cx="362" cy="165" r="9" fill="#7bf0ff"/><circle cx="247" cy="273" r="7" fill="#a783ff"/><path d="M300 220l76-96" stroke="url(#g)" stroke-width="5" stroke-linecap="round"/>
<g transform="translate(720 72)"><rect width="286" height="570" rx="46" fill="#040812" stroke="#35506f" stroke-width="3"/><rect x="17" y="18" width="252" height="534" rx="34" fill="#09182b"/><rect x="94" y="32" width="98" height="18" rx="9" fill="#040812"/><text x="42" y="98" fill="#eafcff" font-family="Arial,sans-serif" font-size="26" font-weight="700">MBlueFisherAI</text><circle cx="143" cy="205" r="77" fill="none" stroke="#66ebff" stroke-width="2"/><circle cx="143" cy="205" r="47" fill="none" stroke="#7487ff" stroke-width="2"/><path d="M143 128v154M66 205h154" stroke="#61e6ff" opacity=".2"/><circle cx="177" cy="177" r="8" fill="#72efff"/><rect x="42" y="316" width="202" height="72" rx="20" fill="#0d2237" stroke="#2c506a"/><rect x="60" y="336" width="105" height="10" rx="5" fill="#dffaff"/><rect x="60" y="358" width="145" height="8" rx="4" fill="#708aa2"/><rect x="42" y="410" width="202" height="58" rx="18" fill="url(#g)"/><text x="86" y="447" fill="#fff" font-family="Arial,sans-serif" font-size="17" font-weight="700">ANALİZİ BAŞLAT</text></g>
<g transform="translate(90 455)"><rect width="410" height="142" rx="28" fill="#091728" stroke="#28435e"/><text x="30" y="48" fill="#7defff" font-family="Arial,sans-serif" font-size="18" font-weight="700">AI FISHING INTELLIGENCE</text><text x="30" y="84" fill="#eefcff" font-family="Arial,sans-serif" font-size="29" font-weight="700">Weather • Spot • Species</text><text x="30" y="115" fill="#8fa7bb" font-family="Arial,sans-serif" font-size="17">Data-driven mobile fishing companion</text></g></svg>
