<svg xmlns="http://www.w3.org/2000/svg" viewBox="0 0 800 520"><defs><linearGradient id="b" x1="0" y1="0" x2="1" y2="1"><stop stop-color="#0b1324"/><stop offset="1" stop-color="#161027"/></linearGradient><linearGradient id="p" x1="0" y1="0" x2="1" y2="1"><stop stop-color="#79efff"/><stop offset=".5" stop-color="#7b83ff"/><stop offset="1" stop-color="#c181ff"/></linearGradient></defs><rect width="800" height="520" rx="42" fill="url(#b)"/><circle cx="400" cy="260" r="180" fill="none" stroke="#768aff" opacity=".13"/><circle cx="400" cy="260" r="124" fill="none" stroke="#72eaff" opacity=".16"/><path d="M175 360c30-135 88-200 190-200 103 0 160 65 190 200" fill="none" stroke="#233b59" stroke-width="18" stroke-linecap="round"/><rect x="176" y="188" width="448" height="226" rx="80" fill="#09111f" stroke="#314867" stroke-width="3"/><path d="M276 250v68M242 284h68" stroke="#74efff" stroke-width="16" stroke-linecap="round"/><circle cx="517" cy="266" r="13" fill="#bd83ff"/><circle cx="557" cy="306" r="13" fill="#74efff"/><circle cx="400" cy="284" r="54" fill="#111f33" stroke="#2f4868"/><path d="M381 292l19-31 19 31z" fill="url(#p)"/><rect x="286" y="108" width="228" height="48" rx="24" fill="#0f1c2f" stroke="#2d4667"/><rect x="322" y="126" width="156" height="12" rx="6" fill="url(#p)"/></svg>
