<svg xmlns="http://www.w3.org/2000/svg" viewBox="0 0 800 520"><defs><linearGradient id="b" x1="0" y1="0" x2="1" y2="1"><stop stop-color="#091421"/><stop offset="1" stop-color="#101426"/></linearGradient><linearGradient id="g"><stop stop-color="#72f1ff"/><stop offset="1" stop-color="#8c80ff"/></linearGradient></defs><rect width="800" height="520" rx="42" fill="url(#b)"/><g stroke="#29435e" stroke-width="3" fill="#0b1727"><rect x="96" y="84" width="608" height="352" rx="32"/><rect x="122" y="118" width="188" height="286" rx="22"/><rect x="334" y="118" width="344" height="132" rx="22"/><rect x="334" y="274" width="160" height="130" rx="22"/><rect x="518" y="274" width="160" height="130" rx="22"/></g><g fill="none" stroke-linecap="round"><path d="M154 167h122M154 204h82M154 241h108M154 278h61" stroke="#7693aa" stroke-width="11"/><path d="M372 166h118" stroke="#effcff" stroke-width="12"/><path d="M372 204h260" stroke="url(#g)" stroke-width="14"/><path d="M372 228h190" stroke="#51657d" stroke-width="8"/></g><circle cx="414" cy="340" r="34" fill="#122a41"/><path d="M398 341l12 12 23-29" fill="none" stroke="#75efbe" stroke-width="8" stroke-linecap="round"/><rect x="550" y="314" width="96" height="16" rx="8" fill="#72efff" opacity=".7"/><rect x="550" y="346" width="72" height="12" rx="6" fill="#7b89ff" opacity=".7"/></svg>
