<svg xmlns="http://www.w3.org/2000/svg" viewBox="0 0 1100 760">
<defs>
<linearGradient id="bg" x1="0" y1="0" x2="1" y2="1"><stop stop-color="#0b1323"/><stop offset=".52" stop-color="#0a1020"/><stop offset="1" stop-color="#111126"/></linearGradient>
<linearGradient id="accent" x1="0" y1="0" x2="1" y2="1"><stop stop-color="#70efff"/><stop offset=".48" stop-color="#7287ff"/><stop offset="1" stop-color="#bb86ff"/></linearGradient>
<linearGradient id="screen" x1="0" y1="0" x2="0" y2="1"><stop stop-color="#112d47"/><stop offset="1" stop-color="#09111f"/></linearGradient>
<filter id="glow"><feGaussianBlur stdDeviation="16" result="b"/><feMerge><feMergeNode in="b"/><feMergeNode in="SourceGraphic"/></feMerge></filter>
</defs>
<rect width="1100" height="760" rx="56" fill="url(#bg)"/>
<g opacity=".15" stroke="#8bdfff"><path d="M0 110H1100M0 220H1100M0 330H1100M0 440H1100M0 550H1100M0 660H1100"/><path d="M110 0V760M220 0V760M330 0V760M440 0V760M550 0V760M660 0V760M770 0V760M880 0V760M990 0V760"/></g>
<circle cx="825" cy="195" r="210" fill="#6d78ff" opacity=".12" filter="url(#glow)"/>
<circle cx="265" cy="580" r="180" fill="#57e9ff" opacity=".10" filter="url(#glow)"/>
<g transform="translate(110 115)">
<rect x="0" y="0" width="505" height="355" rx="28" fill="#0c1424" stroke="#2b3d58"/>
<rect x="20" y="20" width="465" height="42" rx="13" fill="#101d31"/>
<circle cx="46" cy="41" r="6" fill="#ff7c8b"/><circle cx="68" cy="41" r="6" fill="#ffd273"/><circle cx="90" cy="41" r="6" fill="#7ef1b8"/>
<rect x="22" y="82" width="126" height="249" rx="18" fill="#0a1120" stroke="#1c2a40"/>
<rect x="42" y="105" width="86" height="12" rx="6" fill="#6eefff" opacity=".8"/><rect x="42" y="139" width="65" height="9" rx="4.5" fill="#718098"/><rect x="42" y="165" width="74" height="9" rx="4.5" fill="#718098"/><rect x="42" y="191" width="52" height="9" rx="4.5" fill="#718098"/>
<rect x="166" y="82" width="319" height="249" rx="18" fill="#09111e"/>
<path d="M194 120h88l20 24h78" fill="none" stroke="#77f2ff" stroke-width="6" stroke-linecap="round"/><path d="M194 165h54l18 22h116" fill="none" stroke="#8b92ff" stroke-width="6" stroke-linecap="round"/><path d="M194 210h120l20 23h48" fill="none" stroke="#be8bff" stroke-width="6" stroke-linecap="round"/>
<rect x="194" y="262" width="104" height="38" rx="12" fill="url(#accent)" opacity=".9"/><rect x="314" y="262" width="145" height="38" rx="12" fill="#13233a" stroke="#2c4464"/>
</g>
<g transform="translate(655 110)">
<rect x="0" y="0" width="258" height="510" rx="42" fill="#050812" stroke="#354967" stroke-width="3"/>
<rect x="17" y="18" width="224" height="474" rx="30" fill="url(#screen)"/>
<rect x="84" y="30" width="90" height="20" rx="10" fill="#050812"/>
<circle cx="129" cy="145" r="71" fill="none" stroke="#6defff" stroke-width="2" opacity=".65"/><circle cx="129" cy="145" r="43" fill="none" stroke="#8490ff" stroke-width="2" opacity=".65"/><path d="M129 74v142M58 145h142" stroke="#6eefff" opacity=".24"/>
<circle cx="161" cy="119" r="7" fill="#74f3ff"><animate attributeName="r" values="5;10;5" dur="2.6s" repeatCount="indefinite"/></circle>
<rect x="42" y="248" width="174" height="62" rx="18" fill="#0c1c2d" stroke="#2a4c66"/><rect x="58" y="265" width="104" height="9" rx="4.5" fill="#effcff" opacity=".85"/><rect x="58" y="284" width="136" height="7" rx="3.5" fill="#7690a8"/>
<rect x="42" y="330" width="78" height="78" rx="20" fill="#0e1a2a" stroke="#28435f"/><rect x="138" y="330" width="78" height="78" rx="20" fill="#0e1a2a" stroke="#28435f"/>
<rect x="42" y="430" width="174" height="36" rx="18" fill="url(#accent)"/>
</g>
<g transform="translate(820 520) rotate(7)"><rect width="190" height="118" rx="24" fill="#0d1728" stroke="#2d4667"/><circle cx="50" cy="59" r="23" fill="#142a43"/><path d="M43 59h14M50 52v14" stroke="#76f1ff" stroke-width="5" stroke-linecap="round"/><circle cx="135" cy="51" r="7" fill="#b388ff"/><circle cx="151" cy="68" r="7" fill="#76f1ff"/></g>
<g transform="translate(70 505)"><rect width="260" height="118" rx="24" fill="#0d1728" stroke="#2d4667"/><rect x="24" y="25" width="58" height="58" rx="18" fill="#132943"/><path d="M43 54l9 9 17-22" fill="none" stroke="#75f0c3" stroke-width="6" stroke-linecap="round" stroke-linejoin="round"/><rect x="102" y="30" width="120" height="12" rx="6" fill="#eefcff" opacity=".86"/><rect x="102" y="54" width="94" height="9" rx="4.5" fill="#708097"/><rect x="102" y="74" width="72" height="9" rx="4.5" fill="#708097"/></g>
</svg>
